# xmcd
#
# Track frame offsets:
#	150
#	10992
#	21441
#	30475
#	45401
#	59452
#	70177
#	79299
#	94681
#	106318
#	115617
#
# Disc length: 1668 seconds
#
# Revision: 0
# Processed by: cddbd v1.5.2PL0 Copyright (c) Steve Scherf et al.
# Submitted via: EasyCDDAExtractor 2010.4.0.0
#
DISCID=8406820b
DTITLE=김간지x하헌진
DYEAR=2013
DGENRE=Blues
TTITLE0=몸뚱이 블루스
TTITLE1=술과 돈
TTITLE2=개
TTITLE3=카드빚 블루스
TTITLE4=그대 아닌 사람과
TTITLE5=내 방에 침대가 생겼다네
TTITLE6=난 뭐든 좋아
TTITLE7=지난 여름
TTITLE8=그댈 사랑하는 내 마음
TTITLE9=여기선 아무도 믿을 수 없네
TTITLE10=새로운 낮, 새로운 나,
EXTD=
EXTT0=
EXTT1=
EXTT2=
EXTT3=
EXTT4=
EXTT5=
EXTT6=
EXTT7=
EXTT8=
EXTT9=
EXTT10=
PLAYORDER=
